<?xml version="1.0" encoding="utf-8"?>
<!-- Generator: Adobe Illustrator 28.0.0, SVG Export Plug-In . SVG Version: 6.00 Build 0)  -->
<svg version="1.1" id="Layer_1" xmlns="http://www.w3.org/2000/svg" xmlns:xlink="http://www.w3.org/1999/xlink" x="0px" y="0px"
	 viewBox="0 0 50 50" style="enable-background:new 0 0 50 50;" xml:space="preserve">
<style type="text/css">
	.st0{fill:#43B556;}
</style>
<g id="leaf_00000170279301369275546980000018168900131591045813_">
</g>
<g>
	<g>
		<path class="st0" d="M23.9,3.5C24,3.6,24,3.7,24,3.8l-0.6,1.7c-0.1,0.2,0.2,0.4,0.3,0.2l1.5-1.1c0.1-0.1,0.2-0.1,0.3,0l1.5,1.1
			c0.2,0.1,0.4,0,0.3-0.2l-0.6-1.7c0-0.1,0-0.2,0.1-0.2l1.5-1.1c0.2-0.1,0.1-0.4-0.1-0.4h-1.8c-0.1,0-0.2,0-0.2-0.1l-0.6-1.7
			c-0.1-0.2-0.3-0.2-0.4,0l-0.6,1.7c0,0.1-0.1,0.1-0.2,0.1h-1.8c-0.2,0-0.3,0.3-0.1,0.4L23.9,3.5z"/>
		<path class="st0" d="M41.8,9.6c-0.1-0.1-0.1-0.2,0-0.3l0.8-1.6c0.1-0.2-0.1-0.4-0.3-0.3l-1.6,0.8c-0.1,0-0.2,0-0.3,0L39.2,7
			c-0.1-0.1-0.4,0-0.4,0.2l0.3,1.8c0,0.1,0,0.2-0.1,0.2L37.4,10c-0.2,0.1-0.1,0.4,0.1,0.4l1.8,0.3c0.1,0,0.2,0.1,0.2,0.2l0.3,1.8
			c0,0.2,0.3,0.3,0.4,0.1l0.8-1.6c0-0.1,0.1-0.1,0.2-0.1l1.8,0.3c0.2,0,0.3-0.2,0.2-0.4L41.8,9.6z"/>
		<path class="st0" d="M49.8,24.7l-1.7-0.6c-0.1,0-0.1-0.1-0.1-0.2v-1.8c0-0.2-0.3-0.3-0.4-0.1l-1.1,1.5c-0.1,0.1-0.2,0.1-0.3,0.1
			L44.6,23c-0.2-0.1-0.4,0.2-0.2,0.3l1.1,1.5c0.1,0.1,0.1,0.2,0,0.3l-1.1,1.5c-0.1,0.2,0,0.4,0.2,0.3l1.7-0.6c0.1,0,0.2,0,0.2,0.1
			l1.1,1.5c0.1,0.2,0.4,0.1,0.4-0.1v-1.8c0-0.1,0-0.2,0.1-0.2l1.7-0.6C50.1,25.1,50,24.8,49.8,24.7z"/>
		<path class="st0" d="M13,9.9c0.2,0,0.3-0.3,0.1-0.4l-1.6-0.8c-0.1,0-0.1-0.1-0.1-0.2l0.3-1.8c0-0.2-0.2-0.3-0.4-0.2L10,7.7
			c-0.1,0.1-0.2,0.1-0.3,0L8.2,7C8,6.9,7.8,7.1,7.9,7.3l0.8,1.6c0,0.1,0,0.2,0,0.3l-1.3,1.3c-0.1,0.1,0,0.4,0.2,0.4l1.8-0.3
			c0.1,0,0.2,0,0.2,0.1l0.8,1.6c0.1,0.2,0.4,0.1,0.4-0.1l0.3-1.8c0-0.1,0.1-0.2,0.2-0.2L13,9.9z"/>
		<path class="st0" d="M5.7,22.7c0.1-0.2,0-0.4-0.2-0.3l-1.7,0.6c-0.1,0-0.2,0-0.2-0.1l-1.1-1.5C2.3,21.2,2,21.3,2,21.5v1.8
			c0,0.1-0.1,0.2-0.2,0.2L0.2,24c-0.2,0.1-0.2,0.3,0,0.4L1.9,25C2,25,2,25.1,2,25.2V27c0,0.2,0.3,0.3,0.4,0.1l1.1-1.5
			c0.1-0.1,0.2-0.1,0.2-0.1l1.7,0.6c0.2,0.1,0.4-0.2,0.2-0.3l-1.1-1.5c-0.1-0.1-0.1-0.2,0-0.3L5.7,22.7z"/>
		<path class="st0" d="M36.7,25.1c-0.2-4.2-2.6-7.9-6.2-9.8c-0.3-0.2-0.6-0.3-0.9-0.4c-1.4-0.6-3-1-4.7-1c-6.2,0-11.3,4.9-11.7,11
			l0,0v0c0,0.2,0,1.2,0,1.2l-0.2,0.4h1.2c0.4-1.4,1.8-2.4,3.4-2.4c1.9,0,3.5,1.6,3.5,3.6c0,1.9-1.6,3.5-3.5,3.5
			c-1.9,0-3.4-1.5-3.5-3.3h-1.4c0,0-0.1,0-0.1,0l-1.5,4.1c-0.2,0.6,0.2,1.2,0.8,1.2h1.3l0,6.5c0,1.3,1,2.3,2.3,2.3h4.2v6.1
			c0,1,1,1.7,1.9,1.7h10.7c1,0,1.7-0.7,1.7-1.7V35.9c0-1.7,0.4-3.3,1.2-4.8c0.8-1.6,1.3-3.3,1.3-5.2c0-0.1,0-0.2,0-0.3
			C36.8,25.5,36.7,25.3,36.7,25.1z M25.2,24.2h-1v1c0,0.4-0.3,0.6-0.7,0.6s-0.7-0.3-0.7-0.6v-1H22c-0.4,0-0.6-0.3-0.6-0.7
			s0.3-0.7,0.6-0.7h0.9V22c0-0.4,0.3-0.6,0.7-0.6s0.7,0.3,0.7,0.6v0.9h1c0.4,0,0.6,0.3,0.6,0.7S25.6,24.2,25.2,24.2z"/>
		<path class="st0" d="M19.3,29.4c0.4-0.4,0.7-1,0.7-1.6c0-1.2-1-2.3-2.3-2.3c-0.6,0-1.2,0.2-1.6,0.7c-0.4,0.4-0.7,1-0.7,1.6
			c0,1.2,1,2.3,2.3,2.3C18.3,30.1,18.9,29.8,19.3,29.4z"/>
	</g>
</g>
</svg>
